<svg xmlns="http://www.w3.org/2000/svg" viewBox="0 0 860 640" font-family="'Segoe UI', system-ui, -apple-system, sans-serif">
  <defs>
    <marker id="arrow" markerWidth="10" markerHeight="10" refX="6" refY="3" orient="auto" markerUnits="strokeWidth">
      <path d="M0,0 L6,3 L0,6 Z" fill="#94a3b8"/>
    </marker>
  </defs>

  <rect x="10" y="10" width="840" height="620" rx="16" fill="#ffffff" stroke="#e2e8f0" stroke-width="1.5"/>

  <!-- 1. User query -->
  <rect x="270" y="34" width="320" height="46" rx="23" fill="#eff6ff" stroke="#2563eb" stroke-width="1.5"/>
  <text x="430" y="62" font-size="13.5" font-style="italic" fill="#1d4ed8" text-anchor="middle">"Pesticide use in Spain since 2015 &#8212; and why?"</text>
  <line x1="430" y1="80" x2="430" y2="108" stroke="#94a3b8" stroke-width="2" marker-end="url(#arrow)"/>

  <!-- 2. Orchestrator -->
  <rect x="215" y="112" width="430" height="68" rx="10" fill="#2563eb"/>
  <text x="430" y="140" font-size="16" font-weight="700" fill="#ffffff" text-anchor="middle">Orchestrator</text>
  <text x="430" y="162" font-size="12" fill="#dbeafe" text-anchor="middle">JSON-mode ReAct loop &#183; swappable LLM &#183; never touches data directly</text>
  <line x1="430" y1="180" x2="430" y2="208" stroke="#94a3b8" stroke-width="2" marker-end="url(#arrow)"/>

  <!-- 3. Tool layer -->
  <rect x="50" y="212" width="760" height="96" rx="10" fill="#f8fafc" stroke="#cbd5e1" stroke-width="1.5"/>
  <text x="66" y="234" font-size="12" font-weight="700" fill="#64748b">TOOL LAYER</text>
  <!-- chips -->
  <g font-size="11.5" font-weight="600" fill="#334155" text-anchor="middle">
    <rect x="66" y="246" width="134" height="46" rx="7" fill="#ffffff" stroke="#94a3b8"/>
    <text x="133" y="274">CatalogSearch</text>
    <rect x="212" y="246" width="134" height="46" rx="7" fill="#ffffff" stroke="#94a3b8"/>
    <text x="279" y="274">DataFetcher</text>
    <rect x="358" y="246" width="134" height="46" rx="7" fill="#ffffff" stroke="#94a3b8"/>
    <text x="425" y="268">Methodology</text>
    <text x="425" y="282">Lookup</text>
    <rect x="504" y="246" width="134" height="46" rx="7" fill="#ffffff" stroke="#94a3b8"/>
    <text x="571" y="274">PolicyLookup</text>
    <rect x="650" y="246" width="134" height="46" rx="7" fill="#ffffff" stroke="#94a3b8"/>
    <text x="717" y="274">DataJoiner</text>
  </g>
  <line x1="430" y1="308" x2="430" y2="336" stroke="#94a3b8" stroke-width="2" marker-end="url(#arrow)"/>

  <!-- 4. Elasticsearch -->
  <rect x="50" y="340" width="760" height="166" rx="10" fill="#f0fdfa" stroke="#14b8a6" stroke-width="1.5"/>
  <text x="66" y="362" font-size="12" font-weight="700" fill="#0f766e">ELASTICSEARCH &#8212; one store, two retrieval modes</text>

  <!-- ES sub-boxes -->
  <g>
    <rect x="66" y="374" width="172" height="118" rx="7" fill="#ffffff" stroke="#5eead4" stroke-width="1.5"/>
    <text x="152" y="398" font-size="12.5" font-weight="700" fill="#0f766e" text-anchor="middle">L1 &#183; Metadata catalog</text>
    <text x="152" y="424" font-size="10.5" fill="#475569" text-anchor="middle">Which dataset holds</text>
    <text x="152" y="438" font-size="10.5" fill="#475569" text-anchor="middle">the answer?</text>
    <text x="152" y="466" font-size="10" fill="#94a3b8" text-anchor="middle">lexical search</text>

    <rect x="254" y="374" width="172" height="118" rx="7" fill="#ffffff" stroke="#5eead4" stroke-width="1.5"/>
    <text x="340" y="398" font-size="12.5" font-weight="700" fill="#0f766e" text-anchor="middle">Data indexes</text>
    <text x="340" y="424" font-size="10.5" fill="#475569" text-anchor="middle">The numbers.</text>
    <text x="340" y="438" font-size="10.5" fill="#475569" text-anchor="middle">Structured ES query,</text>
    <text x="340" y="452" font-size="10.5" fill="#475569" text-anchor="middle">aggregated in-engine</text>
    <text x="340" y="478" font-size="10" fill="#94a3b8" text-anchor="middle">computed in the DB, not the LLM</text>

    <rect x="442" y="374" width="172" height="118" rx="7" fill="#ffffff" stroke="#5eead4" stroke-width="1.5"/>
    <text x="528" y="398" font-size="12.5" font-weight="700" fill="#0f766e" text-anchor="middle">L2 &#183; Methodology</text>
    <text x="528" y="424" font-size="10.5" fill="#475569" text-anchor="middle">Definitions &amp;</text>
    <text x="528" y="438" font-size="10.5" fill="#475569" text-anchor="middle">data-quality notes</text>
    <text x="528" y="466" font-size="10" fill="#94a3b8" text-anchor="middle">vector search</text>

    <rect x="630" y="374" width="164" height="118" rx="7" fill="#ffffff" stroke="#5eead4" stroke-width="1.5"/>
    <text x="712" y="398" font-size="12.5" font-weight="700" fill="#0f766e" text-anchor="middle">L3 &#183; Policy evidence</text>
    <text x="712" y="424" font-size="10.5" fill="#475569" text-anchor="middle">Source-cited policy</text>
    <text x="712" y="438" font-size="10.5" fill="#475569" text-anchor="middle">excerpts</text>
    <text x="712" y="466" font-size="10" fill="#94a3b8" text-anchor="middle">vector search</text>
  </g>
  <line x1="430" y1="506" x2="430" y2="534" stroke="#94a3b8" stroke-width="2" marker-end="url(#arrow)"/>

  <!-- 5. Output -->
  <rect x="150" y="538" width="560" height="68" rx="10" fill="#ecfdf5" stroke="#16a34a" stroke-width="1.5"/>
  <text x="430" y="564" font-size="14" font-weight="700" fill="#15803d" text-anchor="middle">Verified answer</text>
  <text x="430" y="586" font-size="11.5" fill="#166534" text-anchor="middle">chart spec + grounded number + cited evidence + step-by-step derivation trace</text>

  <!-- ===== brand logos on nodes ===== -->
  <!-- Ollama (white) on the orchestrator: self-hosted qwq:32b -->
  <g fill="#ffffff" transform="translate(577,118) scale(0.95)"><path d="M16.361 10.26a.894.894 0 0 0-.558.47l-.072.148.001.207c0 .193.004.217.059.353.076.193.152.312.291.448.24.238.51.3.872.205a.86.86 0 0 0 .517-.436.752.752 0 0 0 .08-.498c-.064-.453-.33-.782-.724-.897a1.06 1.06 0 0 0-.466 0zm-9.203.005c-.305.096-.533.32-.65.639a1.187 1.187 0 0 0-.06.52c.057.309.31.59.598.667.362.095.632.033.872-.205.14-.136.215-.255.291-.448.055-.136.059-.16.059-.353l.001-.207-.072-.148a.894.894 0 0 0-.565-.472 1.02 1.02 0 0 0-.474.007Zm4.184 2c-.131.071-.223.25-.195.383.031.143.157.288.353.407.105.063.112.072.117.136.004.038-.01.146-.029.243-.02.094-.036.194-.036.222.002.074.07.195.143.253.064.052.076.054.255.059.164.005.198.001.264-.03.169-.082.212-.234.15-.525-.052-.243-.042-.28.087-.355.137-.08.281-.219.324-.314a.365.365 0 0 0-.175-.48.394.394 0 0 0-.181-.033c-.126 0-.207.03-.355.124l-.085.053-.053-.032c-.219-.13-.259-.145-.391-.143a.396.396 0 0 0-.193.032zm.39-2.195c-.373.036-.475.05-.654.086-.291.06-.68.195-.951.328-.94.46-1.589 1.226-1.787 2.114-.04.176-.045.234-.045.53 0 .294.005.357.043.524.264 1.16 1.332 2.017 2.714 2.173.3.033 1.596.033 1.896 0 1.11-.125 2.064-.727 2.493-1.571.114-.226.169-.372.22-.602.039-.167.044-.23.044-.523 0-.297-.005-.355-.045-.531-.288-1.29-1.539-2.304-3.072-2.497a6.873 6.873 0 0 0-.855-.031zm.645.937a3.283 3.283 0 0 1 1.44.514c.223.148.537.458.671.662.166.251.26.508.303.82.02.143.01.251-.043.482-.08.345-.332.705-.672.957a3.115 3.115 0 0 1-.689.348c-.382.122-.632.144-1.525.138-.582-.006-.686-.01-.853-.042-.57-.107-1.022-.334-1.35-.68-.264-.28-.385-.535-.45-.946-.03-.192.025-.509.137-.776.136-.326.488-.73.836-.963.403-.269.934-.46 1.422-.512.187-.02.586-.02.773-.002zm-5.503-11a1.653 1.653 0 0 0-.683.298C5.617.74 5.173 1.666 4.985 2.819c-.07.436-.119 1.04-.119 1.503 0 .544.064 1.24.155 1.721.02.107.031.202.023.208a8.12 8.12 0 0 1-.187.152 5.324 5.324 0 0 0-.949 1.02 5.49 5.49 0 0 0-.94 2.339 6.625 6.625 0 0 0-.023 1.357c.091.78.325 1.438.727 2.04l.13.195-.037.064c-.269.452-.498 1.105-.605 1.732-.084.496-.095.629-.095 1.294 0 .67.009.803.088 1.266.095.555.288 1.143.503 1.534.071.128.243.393.264.407.007.003-.014.067-.046.141a7.405 7.405 0 0 0-.548 1.873c-.062.417-.071.552-.071.991 0 .56.031.832.148 1.279L3.42 24h1.478l-.05-.091c-.297-.552-.325-1.575-.068-2.597.117-.472.25-.819.498-1.296l.148-.29v-.177c0-.165-.003-.184-.057-.293a.915.915 0 0 0-.194-.25 1.74 1.74 0 0 1-.385-.543c-.424-.92-.506-2.286-.208-3.451.124-.486.329-.918.544-1.154a.787.787 0 0 0 .223-.531c0-.195-.07-.355-.224-.522a3.136 3.136 0 0 1-.817-1.729c-.14-.96.114-2.005.69-2.834.563-.814 1.353-1.336 2.237-1.475.199-.033.57-.028.776.01.226.04.367.028.512-.041.179-.085.268-.19.374-.431.093-.215.165-.333.36-.576.234-.29.46-.489.822-.729.413-.27.884-.467 1.352-.561.17-.035.25-.04.569-.04.319 0 .398.005.569.04a4.07 4.07 0 0 1 1.914.997c.117.109.398.457.488.602.034.057.095.177.132.267.105.241.195.346.374.43.14.068.286.082.503.045.343-.058.607-.053.943.016 1.144.23 2.14 1.173 2.581 2.437.385 1.108.276 2.267-.296 3.153-.097.15-.193.27-.333.419-.301.322-.301.722-.001 1.053.493.539.801 1.866.708 3.036-.062.772-.26 1.463-.533 1.854a2.096 2.096 0 0 1-.224.258.916.916 0 0 0-.194.25c-.054.109-.057.128-.057.293v.178l.148.29c.248.476.38.823.498 1.295.253 1.008.231 2.01-.059 2.581a.845.845 0 0 0-.044.098c0 .006.329.009.732.009h.73l.02-.074.036-.134c.019-.076.057-.3.088-.516.029-.217.029-1.016 0-1.258-.11-.875-.295-1.57-.597-2.226-.032-.074-.053-.138-.046-.141.008-.005.057-.074.108-.152.376-.569.607-1.284.724-2.228.031-.26.031-1.378 0-1.628-.083-.645-.182-1.082-.348-1.525a6.083 6.083 0 0 0-.329-.7l-.038-.064.131-.194c.402-.604.636-1.262.727-2.04a6.625 6.625 0 0 0-.024-1.358 5.512 5.512 0 0 0-.939-2.339 5.325 5.325 0 0 0-.95-1.02 8.097 8.097 0 0 1-.186-.152.692.692 0 0 1 .023-.208c.208-1.087.201-2.443-.017-3.503-.19-.924-.535-1.658-.98-2.082-.354-.338-.716-.482-1.15-.455-.996.059-1.8 1.205-2.116 3.01a6.805 6.805 0 0 0-.097.726c0 .036-.007.066-.015.066a.96.96 0 0 1-.149-.078A4.857 4.857 0 0 0 12 3.03c-.832 0-1.687.243-2.456.698a.958.958 0 0 1-.148.078c-.008 0-.015-.03-.015-.066a6.71 6.71 0 0 0-.097-.725C8.997 1.392 8.337.319 7.46.048a2.096 2.096 0 0 0-.585-.041Zm.293 1.402c.248.197.523.759.682 1.388.03.113.06.244.069.292.007.047.026.152.041.233.067.365.098.76.102 1.24l.002.475-.12.175-.118.178h-.278c-.324 0-.646.041-.954.124l-.238.06c-.033.007-.038-.003-.057-.144a8.438 8.438 0 0 1 .016-2.323c.124-.788.413-1.501.696-1.711.067-.05.079-.049.157.013zm9.825-.012c.17.126.358.46.498.888.28.854.36 2.028.212 3.145-.019.14-.024.151-.057.144l-.238-.06a3.693 3.693 0 0 0-.954-.124h-.278l-.119-.178-.119-.175.002-.474c.004-.669.066-1.19.214-1.772.157-.623.434-1.185.68-1.382.078-.062.09-.063.159-.012z"/></g>

  <!-- LangChain on the tool layer -->
  <g fill="#1C3C3C" transform="translate(154,222) scale(0.62)"><path d="M13.796 0a6.93 6.93 0 0 0-4.91 2.019L5.451 5.455l3.273 3.27 3.432-3.432a2.284 2.284 0 0 1 3.277 0 2.28 2.28 0 0 1 0 3.275L12 12.001l3.273 3.273 3.433-3.435c2.692-2.692 2.692-7.127 0-9.82A6.92 6.92 0 0 0 13.796 0m-5.07 8.728-3.433 3.434c-2.692 2.693-2.692 7.126 0 9.819A6.92 6.92 0 0 0 10.203 24a6.93 6.93 0 0 0 4.911-2.02l3.432-3.432-3.271-3.272-3.433 3.433a2.284 2.284 0 0 1-3.277 0 2.28 2.28 0 0 1 0-3.276L12 12z"/></g>

  <!-- Elasticsearch on the data layer -->
  <g fill="#005571" transform="translate(770,350) scale(0.85)"><path d="M13.394 0C8.683 0 4.609 2.716 2.644 6.667h15.641a4.77 4.77 0 0 0 3.073-1.11c.446-.375.864-.785 1.247-1.243l.001-.002A11.974 11.974 0 0 0 13.394 0zM1.804 8.889a12.009 12.009 0 0 0 0 6.222h14.7a3.111 3.111 0 1 0 0-6.222zm.84 8.444C4.61 21.283 8.684 24 13.395 24c3.701 0 7.011-1.677 9.212-4.312l-.001-.002a9.958 9.958 0 0 0-1.247-1.243 4.77 4.77 0 0 0-3.073-1.11z"/></g>
</svg>
